<svg width="223" height="54" viewBox="0 0 223 54" fill="none" xmlns="http://www.w3.org/2000/svg">
<path d="M60.672 14.2V17.368H56.136V31H52.824V17.368H48.312V14.2H60.672ZM65.8329 27.832H72.9129V31H62.5209V14.2H72.7929V17.368H65.8329V20.944H72.1929V24.064H65.8329V27.832ZM88.0395 31H84.2715L81.0075 25.528L77.7435 31H73.9995L79.1355 22.384L74.2635 14.2H78.0075L81.0075 19.24L84.0075 14.2H87.7515L82.8795 22.36L88.0395 31ZM99.4479 14.2H102.736V31H99.4479V24.04H93.2079V31H89.8959V14.2H93.2079V20.872H99.4479V14.2ZM119.993 28.816C118.297 30.496 116.233 31.336 113.801 31.336C111.369 31.336 109.305 30.496 107.609 28.816C105.929 27.12 105.089 25.048 105.089 22.6C105.089 20.152 105.929 18.088 107.609 16.408C109.305 14.712 111.369 13.864 113.801 13.864C116.233 13.864 118.297 14.712 119.993 16.408C121.689 18.088 122.537 20.152 122.537 22.6C122.537 25.048 121.689 27.12 119.993 28.816ZM109.937 26.56C110.977 27.584 112.265 28.096 113.801 28.096C115.337 28.096 116.625 27.584 117.665 26.56C118.705 25.52 119.225 24.2 119.225 22.6C119.225 21 118.705 19.68 117.665 18.64C116.625 17.6 115.337 17.08 113.801 17.08C112.265 17.08 110.977 17.6 109.937 18.64C108.897 19.68 108.377 21 108.377 22.6C108.377 24.2 108.897 25.52 109.937 26.56ZM132.833 31.336C130.305 31.336 128.217 30.496 126.569 28.816C124.921 27.136 124.097 25.064 124.097 22.6C124.097 20.12 124.921 18.048 126.569 16.384C128.217 14.704 130.305 13.864 132.833 13.864C134.353 13.864 135.753 14.224 137.033 14.944C138.329 15.648 139.337 16.608 140.057 17.824L137.201 19.48C136.785 18.728 136.193 18.144 135.425 17.728C134.657 17.296 133.793 17.08 132.833 17.08C131.201 17.08 129.881 17.592 128.873 18.616C127.881 19.64 127.385 20.968 127.385 22.6C127.385 24.216 127.881 25.536 128.873 26.56C129.881 27.584 131.201 28.096 132.833 28.096C133.793 28.096 134.657 27.888 135.425 27.472C136.209 27.04 136.801 26.456 137.201 25.72L140.057 27.376C139.337 28.592 138.337 29.56 137.057 30.28C135.777 30.984 134.369 31.336 132.833 31.336ZM145.403 27.832H152.483V31H142.091V14.2H152.363V17.368H145.403V20.944H151.763V24.064H145.403V27.832ZM164.37 14.2H167.658V31H164.37V24.04H158.13V31H154.818V14.2H158.13V20.872H164.37V14.2ZM178.747 31.336C176.219 31.336 174.131 30.496 172.483 28.816C170.835 27.136 170.011 25.064 170.011 22.6C170.011 20.12 170.835 18.048 172.483 16.384C174.131 14.704 176.219 13.864 178.747 13.864C180.267 13.864 181.667 14.224 182.947 14.944C184.243 15.648 185.251 16.608 185.971 17.824L183.115 19.48C182.699 18.728 182.107 18.144 181.339 17.728C180.571 17.296 179.707 17.08 178.747 17.08C177.115 17.08 175.795 17.592 174.787 18.616C173.795 19.64 173.299 20.968 173.299 22.6C173.299 24.216 173.795 25.536 174.787 26.56C175.795 27.584 177.115 28.096 178.747 28.096C179.707 28.096 180.571 27.888 181.339 27.472C182.123 27.04 182.715 26.456 183.115 25.72L185.971 27.376C185.251 28.592 184.251 29.56 182.971 30.28C181.691 30.984 180.283 31.336 178.747 31.336ZM201.977 28.816C200.281 30.496 198.217 31.336 195.785 31.336C193.353 31.336 191.289 30.496 189.593 28.816C187.913 27.12 187.073 25.048 187.073 22.6C187.073 20.152 187.913 18.088 189.593 16.408C191.289 14.712 193.353 13.864 195.785 13.864C198.217 13.864 200.281 14.712 201.977 16.408C203.673 18.088 204.521 20.152 204.521 22.6C204.521 25.048 203.673 27.12 201.977 28.816ZM191.921 26.56C192.961 27.584 194.249 28.096 195.785 28.096C197.321 28.096 198.609 27.584 199.649 26.56C200.689 25.52 201.209 24.2 201.209 22.6C201.209 21 200.689 19.68 199.649 18.64C198.609 17.6 197.321 17.08 195.785 17.08C194.249 17.08 192.961 17.6 191.921 18.64C190.881 19.68 190.361 21 190.361 22.6C190.361 24.2 190.881 25.52 191.921 26.56ZM213.113 14.2C214.729 14.2 216.089 14.744 217.193 15.832C218.297 16.92 218.849 18.256 218.849 19.84C218.849 21.424 218.297 22.76 217.193 23.848C216.089 24.936 214.729 25.48 213.113 25.48H210.161V31H206.849V14.2H213.113ZM213.113 22.384C213.817 22.384 214.401 22.144 214.865 21.664C215.329 21.168 215.561 20.56 215.561 19.84C215.561 19.104 215.329 18.496 214.865 18.016C214.401 17.536 213.817 17.296 213.113 17.296H210.161V22.384H213.113Z" fill="#2E4462"/>
<path d="M58.52 38.8V39.856H53.4V50H52.28V38.8H58.52ZM64.1238 38.8C65.1264 38.8 65.9638 39.136 66.6358 39.808C67.3078 40.48 67.6438 41.3173 67.6438 42.32C67.6438 43.3227 67.3078 44.16 66.6358 44.832C65.9638 45.504 65.1264 45.84 64.1238 45.84H61.2438V50H60.1238V38.8H64.1238ZM64.1238 44.784C64.8171 44.784 65.3878 44.5547 65.8358 44.096C66.2944 43.6267 66.5238 43.0347 66.5238 42.32C66.5238 41.6053 66.2944 41.0187 65.8358 40.56C65.3878 40.0907 64.8171 39.856 64.1238 39.856H61.2438V44.784H64.1238ZM75.6049 38.8H76.7569L73.0289 47.552C72.6555 48.448 72.1809 49.0933 71.6049 49.488C71.0289 49.8827 70.3142 50.0533 69.4609 50V48.976C70.0582 49.04 70.5489 48.9547 70.9329 48.72C71.3275 48.4747 71.6529 48.0533 71.9089 47.456L72.1329 46.928L68.2769 38.8H69.4289L72.6609 45.68L75.6049 38.8ZM86.2019 38.8V50H85.0819V39.856H79.3219V50H78.2019V38.8H86.2019ZM96.7644 38.8V50H95.6444V39.856H89.8844V50H88.7644V38.8H96.7644ZM106.783 50L105.743 47.248H100.431L99.3909 50H98.2069L102.511 38.8H103.663L107.967 50H106.783ZM100.831 46.192H105.343L103.087 40.192L100.831 46.192ZM121.245 50H119.773L114.525 44.576V50H113.405V38.8H114.525V43.92L119.613 38.8H121.085L115.709 44.24L121.245 50ZM130.997 48.512C129.877 49.632 128.506 50.192 126.885 50.192C125.264 50.192 123.893 49.632 122.773 48.512C121.653 47.3813 121.093 46.0107 121.093 44.4C121.093 42.7893 121.653 41.424 122.773 40.304C123.893 39.1733 125.264 38.608 126.885 38.608C128.506 38.608 129.877 39.1733 130.997 40.304C132.117 41.424 132.677 42.7893 132.677 44.4C132.677 46.0107 132.117 47.3813 130.997 48.512ZM123.557 47.744C124.453 48.6507 125.562 49.104 126.885 49.104C128.208 49.104 129.317 48.6507 130.213 47.744C131.109 46.8267 131.557 45.712 131.557 44.4C131.557 43.088 131.109 41.9787 130.213 41.072C129.317 40.1547 128.208 39.696 126.885 39.696C125.562 39.696 124.453 40.1547 123.557 41.072C122.661 41.9787 122.213 43.088 122.213 44.4C122.213 45.712 122.661 46.8267 123.557 47.744ZM144.833 38.8V50H143.713V40.496L139.793 47.056H139.633L135.713 40.496V50H134.593V38.8H135.985L139.713 45.04L143.441 38.8H144.833ZM155.389 38.8V50H154.269V39.856H148.509V50H147.389V38.8H155.389ZM165.408 50L164.368 47.248H159.056L158.016 50H156.832L161.136 38.8H162.288L166.592 50H165.408ZM159.456 46.192H163.968L161.712 40.192L159.456 46.192ZM175.23 38.8H176.35V50H175.23V44.768H169.15V50H168.03V38.8H169.15V43.712H175.23V38.8ZM186.105 50V40.88L179.865 50H178.905V38.8H180.025V47.92L186.265 38.8H187.225V50H186.105ZM191.86 37.52V36.592H196.02V37.52H191.86ZM196.98 50V40.88L190.74 50H189.78V38.8H190.9V47.92L197.14 38.8H198.1V50H196.98Z" fill="#2E4462"/>
<path fill-rule="evenodd" clip-rule="evenodd" d="M26.8533 34.6687H40.0862L30.0658 52L23.4487 40.5622L26.8533 34.6687Z" fill="#2B5D7D"/>
<path fill-rule="evenodd" clip-rule="evenodd" d="M26.8202 34.669H40.0531L28.5963 14.6519L21.9785 26.0895L26.8202 34.669Z" fill="#337CAC"/>
<path fill-rule="evenodd" clip-rule="evenodd" d="M30.0657 51.9999H10.0205L16.6241 40.5621H23.437L30.0657 51.9999Z" fill="#254D62"/>
<path fill-rule="evenodd" clip-rule="evenodd" d="M13.2188 34.6687L16.624 40.5622L10.0205 52L0 34.6687H13.2188Z" fill="#1E3C4E"/>
<path fill-rule="evenodd" clip-rule="evenodd" d="M26.6248 11.4425L20.0096 0L0 34.6687H13.2323L26.6605 11.4425H26.6248Z" fill="#2B5D7D"/>
</svg>
